<svg width="65" height="90" viewBox="0 0 65 90" fill="none" xmlns="http://www.w3.org/2000/svg">
<path d="M57.6998 26.6177C55.3132 26.6177 53.067 27.8812 51.8035 29.7062C50.54 27.8812 48.2937 26.6177 45.9071 26.6177C43.5205 26.6177 41.2743 27.8812 40.0108 29.7062C38.7473 27.8812 36.5011 26.6177 34.1145 26.6177C31.7279 26.6177 29.4816 27.8812 28.2181 29.7062C26.6739 27.6004 24.568 26.6177 22.3218 26.6177C18.2505 26.6177 15.0216 29.8466 15.0216 33.9179V34.3391H4.91361C2.10583 34.3391 0 36.5853 0 39.2527V58.7667C0 64.663 3.22894 70.2786 8.28294 73.2267C10.108 74.2095 11.0907 76.1749 11.0907 78.1404V87.6868C11.0907 88.5291 11.6523 89.0907 12.4946 89.0907C13.3369 89.0907 13.8985 88.5291 13.8985 87.6868V78.1404C13.8985 75.0518 12.2138 72.244 9.68682 70.6997C5.47516 68.1728 2.80778 63.6803 2.80778 58.7667V39.2527C2.80778 37.9892 3.7905 37.1468 4.91361 37.1468H19.0929C19.7948 37.1468 20.4968 37.7084 20.4968 38.5507C20.4968 42.4816 17.2678 45.8509 13.6177 45.8509H9.12527C8.28294 45.8509 7.72138 46.4125 7.72138 47.2548C7.72138 48.0972 8.28294 48.6587 9.12527 48.6587H10.2484V54.555C10.2484 55.3974 10.8099 55.9589 11.6523 55.9589C12.4946 55.9589 13.0562 55.3974 13.0562 54.555V48.6587H13.6177C14.1793 48.6587 14.7408 48.6587 15.162 48.5183C15.7235 51.8877 18.8121 54.555 22.3218 54.555C24.7084 54.555 26.9546 53.2915 28.2181 51.4665C29.4816 53.2915 31.7279 54.555 34.1145 54.555C36.5011 54.555 38.7473 53.2915 40.0108 51.4665C41.2743 53.2915 43.5205 54.555 45.9071 54.555C48.2937 54.555 50.54 53.2915 51.8035 51.4665C53.067 53.2915 55.3132 54.555 57.6998 54.555C59.3844 54.555 60.9287 53.9935 62.1922 53.0108V65.0842C62.1922 68.3131 59.6652 69.8574 59.2441 70.2786C57.2786 71.9632 56.2959 74.2095 56.2959 76.7365V87.8272C56.2959 88.6695 56.8574 89.2311 57.6998 89.2311C58.5421 89.2311 59.1037 88.6695 59.1037 87.8272V76.7365C59.1037 75.0518 59.8056 73.5075 61.0691 72.3844C61.3499 71.9632 65 69.8574 65 65.0842V47.1144V33.9179C65 29.8466 61.7711 26.6177 57.6998 26.6177ZM26.8143 47.1144C26.8143 49.6414 24.8488 51.6069 22.3218 51.6069C19.9352 51.6069 18.1102 49.7818 17.8294 47.5356C21.0583 45.8509 23.3045 42.3412 23.3045 38.5507C23.3045 36.3045 21.4795 34.3391 19.0929 34.3391H17.8294V33.9179C17.8294 31.3909 19.7948 29.4255 22.3218 29.4255C24.8488 29.4255 26.8143 31.5313 26.8143 33.9179V47.1144ZM34.1145 51.6069C31.5875 51.6069 29.622 49.6414 29.622 47.1144V33.9179C29.622 31.3909 31.5875 29.4255 34.1145 29.4255C36.6415 29.4255 38.6069 31.3909 38.6069 33.9179V47.1144C38.6069 49.501 36.6415 51.6069 34.1145 51.6069ZM45.9071 51.6069C43.3801 51.6069 41.4147 49.6414 41.4147 47.1144V33.9179C41.4147 31.3909 43.3801 29.4255 45.9071 29.4255C48.4341 29.4255 50.3996 31.3909 50.3996 33.9179V47.1144C50.3996 49.501 48.4341 51.6069 45.9071 51.6069ZM57.6998 51.6069C55.1728 51.6069 53.2073 49.6414 53.2073 47.1144V33.9179C53.2073 31.3909 55.1728 29.4255 57.6998 29.4255C60.2268 29.4255 62.1922 31.3909 62.1922 33.9179V47.1144C62.1922 49.501 60.2268 51.6069 57.6998 51.6069Z" fill="#56A995"/>
<path d="M32.4298 12.8598C33.2721 12.8598 33.8337 12.2983 33.8337 11.4559V2.04988C33.8337 1.20755 33.2721 0.645996 32.4298 0.645996C31.5874 0.645996 31.0259 1.20755 31.0259 2.04988V11.4559C31.0259 12.1579 31.5874 12.8598 32.4298 12.8598Z" fill="#56A995"/>
<path d="M20.0755 14.1232C20.3562 14.6848 20.7774 14.9655 21.339 14.9655C21.4793 14.9655 21.7601 14.9655 21.9005 14.8252C22.6025 14.5444 23.0236 13.702 22.6025 13.0001L19.0927 4.43639C18.812 3.73444 17.9696 3.31328 17.2677 3.73444C16.5657 4.01522 16.1446 4.85755 16.5657 5.5595L20.0755 14.1232Z" fill="#56A995"/>
<path d="M10.9506 20.8623C11.5121 21.4239 12.3545 21.4239 12.916 20.8623C13.4776 20.3008 13.4776 19.4584 12.916 18.8969L6.31776 12.2986C5.75621 11.7371 4.91387 11.7371 4.35232 12.2986C3.79076 12.8602 3.79076 13.7025 4.35232 14.264L10.9506 20.8623Z" fill="#56A995"/>
<path d="M53.9093 20.8623L60.5076 14.264C61.0691 13.7025 61.0691 12.8602 60.5076 12.2986C59.946 11.7371 59.1037 11.7371 58.5421 12.2986L51.9439 18.8969C51.3823 19.4584 51.3823 20.3008 51.9439 20.8623C52.5054 21.4239 53.3478 21.4239 53.9093 20.8623Z" fill="#56A995"/>
<path d="M42.959 14.9661C43.6609 15.2469 44.5032 14.9661 44.784 14.2642L48.4341 5.56009C48.7149 4.85815 48.4341 4.01581 47.7322 3.73504C47.0302 3.45426 46.1879 3.73504 45.9071 4.43698L42.257 13.0007C41.9762 13.843 42.257 14.545 42.959 14.9661Z" fill="#56A995"/>
<path d="M49.2767 73.3672C48.4344 73.3672 47.8728 73.9287 47.8728 74.7711V87.5465C47.8728 88.3888 48.4344 88.9503 49.2767 88.9503C50.119 88.9503 50.6806 88.3888 50.6806 87.5465V74.7711C50.6806 74.0691 50.119 73.3672 49.2767 73.3672Z" fill="#56A995"/>
</svg>
