<svg width="87" height="68" viewBox="0 0 87 68" fill="none" xmlns="http://www.w3.org/2000/svg">
<path d="M45.1235 25.1138L45.1273 25.1178H45.1285L45.1235 25.1138Z" fill="#56A995"/>
<path d="M74.8754 34.47L85.3125 21.7289C86.1003 20.7649 86.4598 19.6101 86.4598 18.4748C86.4578 17.0857 85.9258 15.6788 84.8018 14.6216L84.7756 14.5977L84.734 14.5577L84.7708 14.5932C83.6836 13.5787 82.2223 13.0816 80.7776 13.0807C79.4917 13.0807 78.1816 13.4757 77.1351 14.3056L77.137 14.3039L68.0188 21.523C67.2843 22.107 66.4509 22.6494 65.7533 23.0222C65.4073 23.2077 65.0914 23.3515 64.8657 23.4367C64.7523 23.4784 64.6612 23.5059 64.6127 23.5166L64.5914 23.5219C63.8094 23.5219 58.7784 23.5219 57.9645 23.5219C57.917 23.5113 57.7474 23.4571 57.5342 23.3533C56.8239 23.0195 55.6912 22.2393 54.7842 21.3818L46.8956 13.9745C45.8714 13.0115 44.5002 12.5206 43.1427 12.5215C41.79 12.5197 40.4208 13.007 39.3975 13.9674L31.4585 21.3854C30.785 22.0165 30.0098 22.6041 29.3616 23.0044C29.0389 23.205 28.7463 23.3577 28.5408 23.4447C28.443 23.4864 28.3674 23.5113 28.3315 23.521C27.5496 23.521 22.3102 23.521 21.5844 23.521C21.5272 23.5051 21.3703 23.4536 21.1726 23.363C20.4575 23.0444 19.284 22.3156 18.2859 21.5097L9.26168 14.2648C8.22679 13.434 6.92639 13.0301 5.64538 13.031C4.19963 13.0301 2.73645 13.5432 1.66086 14.5764L1.63276 14.603C0.524227 15.6752 0.00387599 17.0901 0 18.4873C0.00193799 19.6208 0.34787 20.7738 1.11532 21.7431L10.4729 33.514C11.0504 34.2401 11.5873 35.0531 11.9603 35.7331C12.1464 36.0721 12.2917 36.3784 12.3789 36.6038C12.4235 36.7166 12.4526 36.8089 12.4662 36.8657L12.4768 36.9127C12.4778 37.6796 12.532 39.8153 12.5979 41.7583L13.3247 63.0633C13.3712 64.3406 13.8751 65.5096 14.7065 66.3963C15.5311 67.2777 16.7394 67.9009 18.1144 67.9017C19.8838 67.9017 30.3761 67.9017 32.1048 67.9017C33.4721 67.9 34.6659 67.2671 35.4721 66.3848C36.2851 65.4972 36.7773 64.3335 36.8219 63.0633L37.5496 41.6997C37.6155 39.7381 37.6707 37.5554 37.6707 36.7796C37.6698 36.7538 37.7056 36.5435 37.789 36.2816C38.0341 35.4721 38.6485 34.1096 39.3345 32.9459L40.538 30.8981C41.0244 30.0691 41.5855 29.1965 42.0855 28.4776C42.3355 28.1172 42.57 27.7959 42.7667 27.542C42.9266 27.3352 43.0671 27.1736 43.1446 27.0902C43.2095 27.1683 43.289 27.2651 43.3752 27.376C43.945 28.103 44.85 29.4114 45.6214 30.6434L47.6388 33.8664C48.0225 34.4771 48.3481 35.157 48.5662 35.7659C48.7881 36.3695 48.8917 36.9243 48.8859 37.1728L48.8801 37.2704C48.7076 37.7018 48.4441 38.4199 48.1369 39.2818C47.8239 40.1606 47.4722 41.1734 47.1572 42.1143L44.6873 49.4701C44.4508 50.1748 44.2628 50.8344 44.1291 51.4104C43.9973 51.9936 43.913 52.4614 43.9091 52.9185C43.915 53.1058 43.9121 53.286 44.0138 53.5869C44.0719 53.7369 44.1562 53.9366 44.3956 54.1648C44.5138 54.2757 44.6776 54.3884 44.8733 54.4674C45.0671 54.5473 45.2909 54.5873 45.4886 54.5864C45.7919 54.5864 47.0642 54.5864 48.3162 54.5864C49.1766 54.5864 50.1253 54.5864 50.8123 54.5864C50.9518 55.071 51.0691 55.8939 51.0662 56.8055V63.0189C51.07 64.2252 51.3947 65.3365 52.0119 66.2383C52.3239 66.6875 52.7144 67.0878 53.2096 67.3949C53.7018 67.7003 54.3191 67.9026 54.9722 67.9009C56.321 67.9009 65.23 67.9009 66.7756 67.9009C67.4383 67.9018 68.0701 67.726 68.6021 67.4384C69.4044 67.0052 70.0004 66.3466 70.4093 65.5868C70.8163 64.8261 71.0391 63.9482 71.0391 63.0189V56.8055C71.0372 55.9169 71.1389 55.1048 71.2698 54.6041C71.2707 54.5979 71.2727 54.5926 71.2736 54.5864C71.9296 54.5864 72.8163 54.5864 73.6254 54.5864C74.8415 54.5864 76.0789 54.5864 76.3754 54.5864C76.577 54.5873 76.8018 54.5464 76.9994 54.4639C77.3493 54.3192 77.5673 54.0858 77.6826 53.9118C77.858 53.641 77.889 53.4609 77.92 53.3117C77.9452 53.1626 77.95 53.041 77.951 52.9221C77.9471 52.4676 77.8638 51.9998 77.7339 51.4158C77.6022 50.8397 77.4171 50.1775 77.1845 49.471L73.9006 39.5215C73.7785 39.1549 73.7078 38.6791 73.7078 38.1625C73.7078 37.4986 73.8231 36.7689 74.0343 36.1094C74.2426 35.4508 74.5508 34.8614 74.8754 34.47ZM48.8917 37.242L48.8927 37.2385C48.8917 37.2394 48.8917 37.2412 48.8917 37.242ZM72.5508 32.8713C71.9548 33.601 71.5343 34.4584 71.2426 35.3647C70.9548 36.271 70.8008 37.227 70.7998 38.1643C70.8008 38.8939 70.8938 39.6138 71.1167 40.2937L74.4006 50.2432C74.607 50.8672 74.7688 51.4477 74.8783 51.9261C74.4859 51.9261 74.0547 51.9261 73.6244 51.9261C72.4083 51.9261 71.0023 51.9261 70.4994 51.9261C70.0004 51.9244 69.5905 52.1356 69.3589 52.3265C69.1467 52.4978 69.0198 52.6655 68.9161 52.8235C68.7378 53.1005 68.6321 53.365 68.5372 53.6526C68.2668 54.5029 68.1341 55.5832 68.1302 56.809V63.0224C68.1341 63.7352 67.8899 64.3645 67.5818 64.748C67.4306 64.9415 67.2678 65.0702 67.1302 65.1439C66.9907 65.2167 66.885 65.2389 66.7736 65.2406C65.6612 65.2406 63.9306 65.2406 62.3773 65.2406V53.7014C62.3773 52.9664 61.7271 52.37 60.9238 52.37C60.1214 52.37 59.4703 52.9664 59.4703 53.7014V65.2406C57.8617 65.2406 56.0362 65.2406 54.9703 65.2406C54.9499 65.2389 54.9218 65.2415 54.8278 65.1865C54.6912 65.1066 54.4518 64.866 54.2745 64.4781C54.0933 64.0938 53.9712 63.5808 53.9712 63.0207V56.8072C53.9693 55.7376 53.8588 54.7701 53.6447 53.9775C53.5342 53.578 53.4082 53.2239 53.1825 52.8635C53.0652 52.6842 52.9228 52.4942 52.6757 52.3025C52.4373 52.117 52.0323 51.9226 51.5545 51.9244C51.0255 51.9244 49.5662 51.9244 48.3142 51.9244C47.8559 51.9244 47.3966 51.9244 46.9809 51.9244C47.0923 51.4513 47.2551 50.8734 47.4634 50.253L49.9334 42.898C50.2435 41.9731 50.5904 40.971 50.8985 40.1073C51.2047 39.2454 51.4761 38.5105 51.6175 38.1607L51.6195 38.1563C51.758 37.8021 51.7881 37.4853 51.79 37.1737C51.7852 36.46 51.6049 35.726 51.3249 34.9342C51.041 34.1478 50.6476 33.324 50.1582 32.5429L48.1398 29.3199C47.5942 28.4501 47.0003 27.5633 46.4712 26.8204C46.2066 26.4484 45.9586 26.1129 45.7357 25.8289C45.5128 25.5448 45.3278 25.3194 45.1252 25.1161C44.6155 24.5995 43.8811 24.343 43.2057 24.3492C42.3956 24.351 41.6301 24.6741 41.0671 25.2226C40.8403 25.4454 40.6359 25.6931 40.3956 26.0002C39.6901 26.91 38.7638 28.2974 37.976 29.6377L36.7725 31.6855C36.2337 32.6033 35.7531 33.577 35.3955 34.4469C35.2153 34.8818 35.067 35.291 34.9566 35.6674C34.849 36.05 34.7676 36.3739 34.7618 36.7769C34.7628 37.4693 34.7085 39.6795 34.6426 41.6172L33.9139 62.9807C33.8936 63.6615 33.6165 64.2722 33.2473 64.6708C32.8694 65.0746 32.4634 65.2406 32.1029 65.2397C30.7221 65.2397 28.4536 65.2397 26.5244 65.2397V53.7005C26.5244 52.9656 25.8742 52.3691 25.0709 52.3691C24.2685 52.3691 23.6174 52.9656 23.6174 53.7005V65.2397C21.7094 65.2397 19.4894 65.2397 18.1115 65.2397C17.7191 65.2397 17.2918 65.0649 16.9071 64.6592C16.5282 64.2607 16.2491 63.6544 16.2288 62.9807L15.502 41.6758C15.4361 39.7372 15.3809 37.5492 15.3809 36.8852C15.3799 36.65 15.3441 36.46 15.2976 36.271C15.1309 35.6292 14.8072 34.9706 14.379 34.2232C13.9497 33.4847 13.4129 32.692 12.8208 31.9473L3.46417 20.1773C3.10854 19.7317 2.90602 19.1228 2.90602 18.489C2.90312 17.7053 3.21901 16.9304 3.73452 16.4422L3.76455 16.4138C4.25002 15.9451 4.93801 15.6957 5.64344 15.6957C6.26748 15.6957 6.87407 15.8901 7.34306 16.2682L16.3683 23.5139C17.2356 24.2089 18.159 24.8303 19.0011 25.3025C19.4236 25.5386 19.8228 25.7357 20.2104 25.8901C20.4051 25.9682 20.598 26.0339 20.8024 26.0881C21.0098 26.1395 21.2269 26.183 21.5108 26.1848C22.2104 26.1848 27.6416 26.1848 28.4003 26.1848C28.694 26.183 28.9255 26.136 29.1436 26.0792C29.5215 25.9753 29.8597 25.828 30.2153 25.6487C31.2657 25.109 32.4537 24.2524 33.5312 23.2521L41.4702 15.8315C41.9363 15.3965 42.5303 15.1879 43.1398 15.1862C43.7493 15.187 44.3452 15.3983 44.8132 15.835L52.7018 23.2414C53.5216 24.0101 54.4237 24.6945 55.2755 25.2155C55.7018 25.4756 56.1156 25.6957 56.5265 25.8662C56.7329 25.9514 56.9393 26.025 57.1592 26.0827C57.3811 26.1387 57.6156 26.183 57.9044 26.1848C58.7048 26.1848 63.8657 26.1848 64.636 26.1848C64.9102 26.183 65.1312 26.1431 65.3434 26.0943C66.0643 25.9141 66.761 25.5786 67.5498 25.1374C68.3279 24.6954 69.1486 24.1459 69.917 23.537L79.0353 16.3188L79.0372 16.317C79.5091 15.9398 80.1303 15.7436 80.7737 15.7436C81.4956 15.7427 82.2001 15.9948 82.6913 16.4564L82.7253 16.4892C83.2408 16.9659 83.5528 17.715 83.5499 18.4739C83.5508 19.0935 83.3473 19.6891 82.984 20.1303L72.5508 32.8713Z" fill="#56A995"/>
<path d="M25.0722 20.4156C31.2272 20.4156 36.2156 15.846 36.2156 10.2078C36.2156 4.56954 31.2272 0 25.0722 0C18.9171 0 13.9287 4.56954 13.9287 10.2078C13.9287 15.846 18.9171 20.4156 25.0722 20.4156ZM25.0722 2.6629C29.6148 2.6629 33.3086 6.04745 33.3086 10.2078C33.3086 14.3681 29.6139 17.7527 25.0722 17.7527C20.5305 17.7527 16.8357 14.3681 16.8357 10.2078C16.8357 6.04745 20.5305 2.6629 25.0722 2.6629Z" fill="#56A995"/>
<path d="M25.0011 36.0755C25.8039 36.0755 26.4546 35.4794 26.4546 34.744C26.4546 34.0087 25.8039 33.4126 25.0011 33.4126C24.1984 33.4126 23.5476 34.0087 23.5476 34.744C23.5476 35.4794 24.1984 36.0755 25.0011 36.0755Z" fill="#56A995"/>
<path d="M25.0011 42.2894C25.8039 42.2894 26.4546 41.6932 26.4546 40.9579C26.4546 40.2226 25.8039 39.6265 25.0011 39.6265C24.1984 39.6265 23.5476 40.2226 23.5476 40.9579C23.5476 41.6932 24.1984 42.2894 25.0011 42.2894Z" fill="#56A995"/>
<path d="M60.8541 36.0755C61.6568 36.0755 62.3076 35.4794 62.3076 34.744C62.3076 34.0087 61.6568 33.4126 60.8541 33.4126C60.0514 33.4126 59.4006 34.0087 59.4006 34.744C59.4006 35.4794 60.0514 36.0755 60.8541 36.0755Z" fill="#56A995"/>
<path d="M60.8541 42.2894C61.6568 42.2894 62.3076 41.6932 62.3076 40.9579C62.3076 40.2226 61.6568 39.6265 60.8541 39.6265C60.0514 39.6265 59.4006 40.2226 59.4006 40.9579C59.4006 41.6932 60.0514 42.2894 60.8541 42.2894Z" fill="#56A995"/>
<path d="M40.9889 8.75796C40.9889 8.75796 43.3435 10.0291 46.3407 10.0291C47.2815 10.0291 48.2864 9.9039 49.3009 9.57459C49.4647 9.52044 49.6091 9.44943 49.7651 9.38907C49.7428 9.6598 49.7205 9.93053 49.7205 10.2075C49.7205 15.8458 54.7089 20.4153 60.864 20.4153C67.0191 20.4153 72.0075 15.8458 72.0075 10.2075C72.0075 9.91278 71.9861 9.62341 71.959 9.33581C72.1557 9.4157 72.3408 9.50713 72.5491 9.57547C73.5646 9.90479 74.5685 10.0299 75.5104 10.0299C78.5075 10.0299 80.8621 8.75884 80.8621 8.75884C81.3215 8.51119 81.5443 7.93334 81.3583 7.4762C81.3583 7.4762 79.709 3.42501 75.4629 2.0465C74.4484 1.71719 73.4454 1.59203 72.5036 1.59203C70.6538 1.59203 69.0501 2.07668 68.0917 2.4486C66.1441 0.924522 63.6237 0.000488281 60.863 0.000488281C58.1217 0.000488281 55.614 0.911208 53.6731 2.41576C52.707 2.05005 51.144 1.59203 49.3455 1.59203C48.4046 1.59203 47.4017 1.71719 46.3872 2.0465C42.1401 3.42501 40.4908 7.4762 40.4908 7.4762C40.3048 7.93334 40.5286 8.51031 40.9889 8.75796ZM72.5045 4.25406C73.2071 4.25406 73.8747 4.35437 74.492 4.55586C76.052 5.06182 77.1383 6.15273 77.8069 7.04481C77.1615 7.21967 76.365 7.36613 75.5104 7.36613C74.8069 7.36613 74.1373 7.26583 73.5201 7.06434C71.9609 6.55838 70.8737 5.46747 70.2061 4.57628C70.8514 4.40141 71.648 4.25406 72.5045 4.25406ZM60.863 2.66252C65.4047 2.66252 69.0995 6.0471 69.0995 10.2075C69.0995 14.3678 65.4047 17.7524 60.863 17.7524C56.3213 17.7524 52.6265 14.3678 52.6265 10.2075C52.6265 6.0471 56.3223 2.66252 60.863 2.66252ZM47.3591 4.55586C47.9763 4.35437 48.644 4.25406 49.3465 4.25406C50.175 4.25406 50.9473 4.39254 51.5829 4.56208C51.4744 4.71209 51.3765 4.86831 51.2777 5.02454C50.6004 5.80921 49.6304 6.64359 48.331 7.06522C47.7137 7.26672 47.0451 7.36702 46.3416 7.36702C45.487 7.36702 44.6914 7.22056 44.0461 7.0457C44.7127 6.15095 45.799 5.06093 47.3591 4.55586Z" fill="#56A995"/>
</svg>
