<svg width="78" height="94" viewBox="0 0 78 94" fill="none" xmlns="http://www.w3.org/2000/svg">
<path d="M76.891 63.1082C78.024 60.5102 78.077 57.6292 77.039 54.9922C76.045 52.4642 74.163 50.4542 71.718 49.2942C72.826 44.3752 70.307 39.3102 65.602 37.2602C64.192 36.6462 62.666 36.3472 61.144 36.3802C60.654 33.9472 59.336 31.7802 57.367 30.2102C56.96 29.8852 56.366 29.9512 56.041 30.3592C55.716 30.7672 55.783 31.3612 56.189 31.6862C57.997 33.1282 59.14 35.1802 59.41 37.4652C59.41 37.4722 59.411 37.4792 59.412 37.4862C59.451 37.8232 59.471 38.1652 59.471 38.5012C59.471 43.3092 55.56 47.2212 50.752 47.2212C50.231 47.2212 49.808 47.6432 49.808 48.1652C49.808 48.6862 50.231 49.1092 50.752 49.1092C56.602 49.1092 61.359 44.3502 61.359 38.5012C61.359 38.4242 61.355 38.3462 61.353 38.2692C62.547 38.2672 63.741 38.5092 64.848 38.9912C68.933 40.7702 71.017 45.3132 69.698 49.5592C69.601 49.8672 69.489 50.1722 69.36 50.4682C67.44 54.8742 62.293 56.8982 57.884 54.9792C57.406 54.7712 56.85 54.9902 56.642 55.4662C56.433 55.9452 56.652 56.5012 57.13 56.7092C58.505 57.3082 59.939 57.5912 61.351 57.5912C65.446 57.5912 69.354 55.2082 71.09 51.2222C71.107 51.1852 71.119 51.1472 71.136 51.1102C73.034 52.0772 74.496 53.6832 75.282 55.6822C76.135 57.8502 76.092 60.2192 75.161 62.3542C74.558 63.7382 73.623 64.9222 72.434 65.8212C69.397 62.3342 64.339 61.1902 60.063 63.1282C59.586 63.3432 59.376 63.9032 59.592 64.3782C59.808 64.8532 60.366 65.0632 60.841 64.8492C64.588 63.1512 69.063 64.3282 71.482 67.6532C71.832 68.1312 72.133 68.6492 72.379 69.1952C74.362 73.5742 72.414 78.7502 68.034 80.7352C65.88 81.7112 63.433 81.7652 61.245 80.9042C60.492 75.7882 56.074 71.8472 50.752 71.8472C50.231 71.8472 49.808 72.2692 49.808 72.7902C49.808 73.3122 50.231 73.7342 50.752 73.7342C55.56 73.7342 59.472 77.6462 59.472 82.4542C59.472 87.2632 55.56 91.1732 50.752 91.1732C45.944 91.1732 42.033 87.2632 42.033 82.4542L42.032 82.4532V55.6372C42.032 55.1152 41.609 54.6932 41.089 54.6932C40.567 54.6932 40.145 55.1152 40.145 55.6372V82.4532C40.145 82.4542 40.145 82.4552 40.145 82.4562C40.146 88.3052 44.905 93.0612 50.752 93.0612C56.44 93.0612 61.095 88.5612 61.347 82.9342C62.355 83.2412 63.396 83.3982 64.438 83.3982C65.929 83.3982 67.421 83.0842 68.813 82.4532C74.142 80.0392 76.512 73.7422 74.1 68.4162C73.934 68.0502 73.746 67.6942 73.541 67.3502C75.004 66.2532 76.153 64.8042 76.891 63.1082Z" fill="#53A38F"/>
<path d="M36.6951 54.6922C36.1741 54.6922 35.7511 55.1142 35.7511 55.6362V82.4482C35.7511 82.4492 35.7501 82.4522 35.7501 82.4542C35.7501 87.2622 31.8391 91.1732 27.0311 91.1732C22.2231 91.1732 18.3121 87.2622 18.3121 82.4542C18.3121 77.6452 22.2241 73.7342 27.0311 73.7342C27.5521 73.7342 27.9751 73.3112 27.9751 72.7902C27.9751 72.2692 27.5521 71.8472 27.0311 71.8472C21.7091 71.8472 17.2911 75.7862 16.5381 80.9042C14.3501 81.7652 11.9031 81.7102 9.74811 80.7332C5.36911 78.7502 3.42012 73.5742 5.40412 69.1932C5.65112 68.6482 5.95212 68.1292 6.30312 67.6502C8.72012 64.3292 13.1941 63.1502 16.9421 64.8472C17.4161 65.0632 17.9761 64.8522 18.1921 64.3772C18.4071 63.9012 18.1961 63.3432 17.7211 63.1272C13.4421 61.1892 8.38512 62.3332 5.34812 65.8192C4.16012 64.9232 3.22412 63.7382 2.62212 62.3542C1.69112 60.2182 1.64811 57.8502 2.50011 55.6822C3.28611 53.6822 4.75012 52.0762 6.64612 51.1102C6.66212 51.1472 6.67512 51.1852 6.69112 51.2222C8.42812 55.2082 12.3361 57.5912 16.4301 57.5912C17.8421 57.5912 19.2771 57.3082 20.6511 56.7092C21.1291 56.5002 21.3471 55.9442 21.1401 55.4662C20.9321 54.9882 20.3741 54.7702 19.8971 54.9792C15.4901 56.8982 10.3421 54.8752 8.42212 50.4682C8.29412 50.1732 8.18011 49.8662 8.08411 49.5582C6.76411 45.3132 8.84912 40.7692 12.9321 38.9912C14.0401 38.5082 15.2341 38.2662 16.4291 38.2682C16.4281 38.3462 16.4221 38.4232 16.4221 38.5002C16.4221 44.3502 21.1811 49.1092 27.0301 49.1092C27.5521 49.1092 27.9741 48.6852 27.9741 48.1652C27.9741 47.6432 27.5521 47.2212 27.0301 47.2212C22.2221 47.2212 18.3111 43.3092 18.3111 38.5012C18.3111 38.1652 18.3311 37.8232 18.3711 37.4852C18.3711 37.4792 18.3721 37.4722 18.3731 37.4652C18.6391 35.1942 19.7721 33.1492 21.5631 31.7052C21.9691 31.3782 22.0331 30.7842 21.7061 30.3772C21.3781 29.9712 20.7841 29.9072 20.3781 30.2342C18.4291 31.8042 17.1241 33.9622 16.6361 36.3792C15.1131 36.3472 13.5881 36.6452 12.1771 37.2592C7.47311 39.3082 4.95212 44.3732 6.06212 49.2922C3.61812 50.4512 1.73512 52.4622 0.741123 54.9902C-0.295877 57.6282 -0.242882 60.5102 0.889118 63.1072C1.62712 64.8032 2.77711 66.2532 4.23911 67.3482C4.03411 67.6932 3.84611 68.0472 3.68111 68.4122C1.26811 73.7402 3.63912 80.0372 8.96712 82.4512C10.3591 83.0822 11.8511 83.3972 13.3431 83.3972C14.3851 83.3972 15.4261 83.2392 16.4331 82.9322C16.6851 88.5592 21.3401 93.0592 27.0281 93.0592C32.8741 93.0592 37.6311 88.3042 37.6351 82.4582C37.6351 82.4552 37.6361 82.4532 37.6361 82.4512V55.6342C37.6391 55.1142 37.2161 54.6922 36.6951 54.6922Z" fill="#53A38F"/>
<path d="M31.1141 38.2979V38.7869H30.4901C29.9691 38.7869 29.5461 39.2099 29.5461 39.7309C29.5461 40.2519 29.9681 40.6749 30.4901 40.6749H31.1141V50.1639C31.1141 50.6849 31.5371 51.1079 32.0581 51.1079H34.6201V52.8029C34.6201 53.3239 35.0431 53.7469 35.5641 53.7469H42.2201C42.7421 53.7469 43.1641 53.3239 43.1641 52.8029V51.1079H45.7261C46.2471 51.1079 46.6691 50.6839 46.6691 50.1639V47.6479H47.2941C47.8151 47.6479 48.2361 47.2249 48.2361 46.7039C48.2361 46.1829 47.8141 45.7599 47.2941 45.7599H46.6691V44.2619H47.2941C47.8151 44.2619 48.2361 43.8389 48.2361 43.3179C48.2361 42.7969 47.8141 42.3739 47.2941 42.3739H46.6691V40.6759H47.2941C47.8151 40.6759 48.2361 40.2529 48.2361 39.7319C48.2361 39.2109 47.8141 38.7879 47.2941 38.7879H46.6691V38.2989C52.2401 35.4079 55.8091 29.5749 55.8091 23.2739C55.8091 13.9459 48.2191 6.35693 38.8921 6.35693C29.5651 6.35693 21.9751 13.9459 21.9751 23.2739C21.9751 29.5739 25.5431 35.4069 31.1141 38.2979ZM41.2761 51.8589H36.5081V51.1079H41.2761V51.8589ZM44.7821 42.3729H37.3831C36.8621 42.3729 36.4391 42.7959 36.4391 43.3169C36.4391 43.8379 36.8621 44.2609 37.3831 44.2609H44.7821V45.7589H37.3831C36.8621 45.7589 36.4391 46.1819 36.4391 46.7029C36.4391 47.2239 36.8621 47.6469 37.3831 47.6469H44.7821V49.2179H42.2251C42.2241 49.2179 42.2211 49.2169 42.2201 49.2169C42.2191 49.2169 42.2181 49.2179 42.2171 49.2179H35.5671C35.5661 49.2179 35.5651 49.2169 35.5641 49.2169C35.5631 49.2169 35.5621 49.2179 35.5601 49.2179H33.0031V40.6739H44.7821V42.3729ZM38.8921 8.24394C47.1791 8.24394 53.9211 14.9859 53.9211 23.2719C53.9211 29.0499 50.5451 34.3829 45.3221 36.8599C45.3021 36.8689 45.2871 36.8809 45.2691 36.8919C45.2381 36.9089 45.2061 36.9259 45.1781 36.9469C45.1541 36.9649 45.1321 36.9839 45.1091 37.0039C45.0871 37.0249 45.0631 37.0439 45.0421 37.0669C45.0211 37.0899 45.0021 37.1129 44.9831 37.1379C44.9641 37.1619 44.9461 37.1849 44.9291 37.2119C44.9131 37.2369 44.9011 37.2629 44.8871 37.2889C44.8721 37.3169 44.8591 37.3449 44.8471 37.3739C44.8361 37.4019 44.8281 37.4309 44.8201 37.4599C44.8131 37.4889 44.8041 37.5179 44.7991 37.5479C44.7921 37.5829 44.7911 37.6169 44.7881 37.6519C44.7871 37.6729 44.7821 37.6929 44.7821 37.7139V38.7889H33.0031V37.7139C33.0031 37.6909 32.9981 37.6689 32.9961 37.6449C32.9941 37.6129 32.9931 37.5819 32.9871 37.5509C32.9811 37.5179 32.9721 37.4869 32.9631 37.4549C32.9551 37.4279 32.9481 37.4019 32.9391 37.3759C32.9261 37.3439 32.9111 37.3139 32.8961 37.2849C32.8841 37.2609 32.8721 37.2359 32.8571 37.2129C32.8391 37.1859 32.8201 37.1609 32.8001 37.1349C32.7821 37.1119 32.7651 37.0899 32.7451 37.0679C32.7231 37.0449 32.6991 37.0239 32.6741 37.0029C32.6531 36.9839 32.6321 36.9659 32.6091 36.9489C32.5791 36.9279 32.5471 36.9099 32.5151 36.8919C32.4971 36.8819 32.4831 36.8709 32.4651 36.8619C27.2421 34.3849 23.8661 29.0519 23.8661 23.2749C23.8631 14.9849 30.6051 8.24394 38.8921 8.24394Z" fill="#53A38F"/>
<path d="M38.892 4.407C39.413 4.407 39.836 3.984 39.836 3.463V0.944C39.836 0.423 39.413 0 38.892 0C38.371 0 37.948 0.423 37.948 0.944V3.463C37.947 3.984 38.37 4.407 38.892 4.407Z" fill="#53A38F"/>
<path d="M28.3272 6.5468C28.5022 6.8488 28.8192 7.0188 29.1452 7.0188C29.3052 7.0188 29.4682 6.97781 29.6172 6.89281C30.0682 6.63181 30.2232 6.0548 29.9632 5.6028L28.7042 3.4218C28.4432 2.9708 27.8662 2.81581 27.4142 3.07581C26.9622 3.33681 26.8082 3.9138 27.0682 4.3658L28.3272 6.5468Z" fill="#53A38F"/>
<path d="M19.3571 12.7691L21.5381 14.0281C21.6871 14.1141 21.8491 14.1541 22.0091 14.1541C22.3351 14.1541 22.6531 13.9851 22.8271 13.6821C23.0881 13.2311 22.9331 12.6531 22.4821 12.3921L20.3011 11.1331C19.8491 10.8721 19.2721 11.0271 19.0111 11.4781C18.7511 11.9301 18.9051 12.5081 19.3571 12.7691Z" fill="#53A38F"/>
<path d="M16.879 23.9022H19.3981C19.9191 23.9022 20.3421 23.4802 20.3421 22.9582C20.3421 22.4372 19.9191 22.0142 19.3981 22.0142H16.879C16.357 22.0142 15.9351 22.4372 15.9351 22.9582C15.9351 23.4792 16.357 23.9022 16.879 23.9022Z" fill="#53A38F"/>
<path d="M57.4421 22.9582C57.4421 23.4792 57.8651 23.9022 58.3861 23.9022H60.9041C61.4261 23.9022 61.8481 23.4792 61.8481 22.9582C61.8481 22.4372 61.4261 22.0142 60.9041 22.0142H58.3861C57.8661 22.0152 57.4421 22.4372 57.4421 22.9582Z" fill="#53A38F"/>
<path d="M55.7751 14.1549C55.9351 14.1549 56.0971 14.1139 56.2471 14.0289L58.4281 12.7699C58.8791 12.5099 59.0331 11.9329 58.7741 11.4799C58.5131 11.0289 57.9351 10.8739 57.4841 11.1339L55.3031 12.3929C54.8511 12.6539 54.6971 13.2309 54.9571 13.6829C55.1321 13.9859 55.4491 14.1549 55.7751 14.1549Z" fill="#53A38F"/>
<path d="M48.1681 6.893C48.3161 6.979 48.4791 7.02 48.6381 7.02C48.9651 7.02 49.2821 6.851 49.4561 6.548L50.7171 4.367C50.9781 3.916 50.8231 3.33799 50.3711 3.07699C49.9191 2.81599 49.3431 2.97099 49.0821 3.42199L47.8221 5.60299C47.5611 6.05399 47.7161 6.632 48.1681 6.893Z" fill="#53A38F"/>
</svg>
