<svg width="70" height="74" viewBox="0 0 70 74" fill="none" xmlns="http://www.w3.org/2000/svg">
<path d="M68.7371 41.7421H68.657C67.6812 40.5843 66.3046 39.8668 64.8221 39.7432C63.3396 39.6197 61.8691 40.0999 60.7258 41.0811L47.7474 52.1531L36.7719 52.7314C36.4893 52.75 36.2069 52.6909 35.9536 52.5603C35.7003 52.4297 35.4851 52.2321 35.3299 51.9878C35.1961 51.7618 35.117 51.5059 35.0992 51.2417C35.0813 50.9776 35.1253 50.7128 35.2274 50.4699C35.3295 50.2269 35.4867 50.0128 35.6858 49.8456C35.8849 49.6784 36.12 49.5629 36.3714 49.509L43.0208 48.1044C44.403 47.8228 45.6289 47.0075 46.4479 45.825C47.2668 44.6424 47.617 43.182 47.427 41.7421C47.2108 40.3268 46.4929 39.0446 45.4124 38.1439C44.332 37.2433 42.9658 36.7883 41.5787 36.8672L22.7521 38.1066C21.3848 38.1537 20.067 38.6454 18.9868 39.5112L0 55.1276L2.00283 57.689L20.9095 42.0726C21.4815 41.6077 22.1843 41.3468 22.9124 41.329L41.7389 40.0896C42.3304 40.0418 42.9171 40.2292 43.3788 40.6132C43.8406 40.9973 44.1424 41.549 44.2225 42.1553C44.2947 42.7543 44.1451 43.3595 43.8035 43.8497C43.4619 44.3399 42.9534 44.679 42.3799 44.7993L35.7305 46.204C34.6044 46.5115 33.6249 47.2303 32.9741 48.2268C32.3233 49.2233 32.0455 50.4297 32.1924 51.6215C32.3393 52.8134 32.9009 53.9097 33.7727 54.7066C34.6445 55.5035 35.7673 55.9467 36.9322 55.9539L48.4685 55.2929C48.8246 55.2694 49.1629 55.124 49.4298 54.8797L62.8888 43.312C63.1336 43.0948 63.4182 42.9306 63.7259 42.8293C64.0335 42.728 64.3578 42.6917 64.6793 42.7226C65.0008 42.7534 65.3131 42.8508 65.5973 43.0089C65.8815 43.1669 66.132 43.3824 66.3337 43.6425H66.2536C66.4541 43.8809 66.6071 44.1578 66.7036 44.4573C66.8001 44.7569 66.8383 45.0731 66.816 45.3879C66.7936 45.7027 66.7112 46.0098 66.5735 46.2917C66.4357 46.5735 66.2453 46.8245 66.0132 47.0302L49.1895 62.0682C48.8618 62.3632 48.4807 62.5881 48.0681 62.73C47.6555 62.8718 47.2198 62.9277 46.7861 62.8945L20.8294 61.5725C20.6124 61.5535 20.3939 61.5803 20.1873 61.6514C19.9807 61.7224 19.7903 61.8361 19.6277 61.9856L10.3346 70.8266L12.4976 73.3054L21.3101 64.8775L46.6258 66.3648C48.3249 66.4636 49.9936 65.8702 51.2724 64.7123L68.0962 49.6743C69.1848 48.6994 69.8612 47.3245 69.9809 45.8426C70.1006 44.3608 69.6543 42.8894 68.7371 41.7421Z" fill="#59BAA3"/>
<path d="M13.8596 20.0947V25.0522C13.8596 26.3671 14.3661 27.628 15.2675 28.5578C16.169 29.4875 17.3916 30.0098 18.6664 30.0098H28.5204C28.8401 30.9976 29.4533 31.8564 30.273 32.4645C31.0926 33.0725 32.0772 33.399 33.0868 33.3974H44.8635C45.8732 33.399 46.8577 33.0725 47.6774 32.4645C48.497 31.8564 49.1102 30.9976 49.43 30.0098H59.2839C60.5588 30.0098 61.7814 29.4875 62.6828 28.5578C63.5843 27.628 64.0907 26.3671 64.0907 25.0522V20.0947C64.0911 18.6328 63.7832 17.1884 63.1883 15.8615C62.5935 14.5347 61.7259 13.3571 60.6458 12.4105C61.0517 11.4606 61.2688 10.4364 61.2844 9.39855C61.2999 8.36065 61.1136 7.33007 60.7364 6.3677C60.3592 5.40533 59.7988 4.53071 59.0883 3.79552C58.3778 3.06033 57.5316 2.47948 56.5997 2.08731C55.6679 1.69515 54.6692 1.49961 53.6628 1.51226C52.6565 1.52491 51.6627 1.74549 50.7404 2.16096C49.8181 2.57644 48.9859 3.17838 48.293 3.93121C47.6 4.68404 47.0604 5.57249 46.7061 6.54405C46.3405 4.69668 45.3673 3.03629 43.9513 1.84382C42.5352 0.651341 40.7632 0 38.9351 0C37.107 0 35.335 0.651341 33.9189 1.84382C32.5029 3.03629 31.5297 4.69668 31.1641 6.54405C30.8098 5.57249 30.2702 4.68404 29.5773 3.93121C28.8843 3.17838 28.0521 2.57644 27.1298 2.16096C26.2075 1.74549 25.2138 1.52491 24.2074 1.51226C23.201 1.49961 22.2024 1.69515 21.2705 2.08731C20.3386 2.47948 19.4925 3.06033 18.7819 3.79552C18.0714 4.53071 17.511 5.40533 17.1338 6.3677C16.7566 7.33007 16.5703 8.36065 16.5859 9.39855C16.6014 10.4364 16.8185 11.4606 17.2244 12.4105C16.1589 13.3649 15.3065 14.5459 14.7256 15.8723C14.1448 17.1988 13.8494 18.6393 13.8596 20.0947ZM31.1641 12.9062L30.6834 12.4105C30.9578 11.8868 31.1728 11.3323 31.3243 10.758C31.4638 11.2714 31.6517 11.7695 31.8851 12.2452L31.1641 12.9062ZM46.4658 28.4399C46.4658 28.8782 46.297 29.2985 45.9965 29.6084C45.696 29.9183 45.2884 30.0924 44.8635 30.0924H33.0868C32.6619 30.0924 32.2543 29.9183 31.9539 29.6084C31.6534 29.2985 31.4846 28.8782 31.4846 28.4399V20.3426C31.4841 19.2772 31.7057 18.2242 32.1342 17.2549C32.5626 16.2855 33.1881 15.4224 33.9681 14.724C35.3889 15.9329 37.1733 16.594 39.0152 16.594C40.8571 16.594 42.6416 15.9329 44.0624 14.724C44.8465 15.4188 45.4748 16.2812 45.9036 17.2514C46.3325 18.2216 46.5516 19.2763 46.5459 20.3426L46.4658 28.4399ZM46.7061 12.9062L45.9851 12.2452C46.2186 11.7695 46.4064 11.2714 46.5459 10.758C46.6974 11.3323 46.9125 11.8868 47.1868 12.4105L46.7061 12.9062ZM60.8862 25.0522C60.8862 25.4905 60.7174 25.9108 60.4169 26.2207C60.1164 26.5307 59.7089 26.7048 59.2839 26.7048H49.6703V20.3426C49.6744 18.7115 49.3182 17.1009 48.6288 15.6329L49.2697 14.9719C50.6021 16.0645 52.2541 16.6593 53.9564 16.6593C55.6586 16.6593 57.3106 16.0645 58.643 14.9719C59.3506 15.6105 59.917 16.3983 60.304 17.2821C60.691 18.1658 60.8895 19.125 60.8862 20.0947V25.0522ZM53.9964 4.39578C54.852 4.39578 55.6885 4.65746 56.3999 5.14773C57.1113 5.638 57.6658 6.33483 57.9932 7.15012C58.3207 7.96541 58.4063 8.86252 58.2394 9.72803C58.0725 10.5935 57.6605 11.3885 57.0555 12.0125C56.4504 12.6365 55.6796 13.0615 54.8404 13.2336C54.0012 13.4058 53.1314 13.3174 52.3409 12.9797C51.5504 12.642 50.8747 12.0702 50.3994 11.3364C49.924 10.6027 49.6703 9.74003 49.6703 8.85757C49.6701 7.68841 50.1149 6.56588 50.9089 5.73147C51.703 4.89705 52.7829 4.41743 53.9163 4.39578H53.9964ZM38.9351 3.48689C39.8858 3.48689 40.8152 3.77765 41.6056 4.32239C42.3961 4.86713 43.0122 5.6414 43.376 6.54727C43.7398 7.45315 43.835 8.44994 43.6495 9.41161C43.4641 10.3733 43.0063 11.2566 42.334 11.95C41.6618 12.6433 40.8053 13.1154 39.8729 13.3067C38.9404 13.498 37.974 13.3998 37.0956 13.0246C36.2173 12.6494 35.4666 12.014 34.9384 11.1987C34.4102 10.3834 34.1283 9.42496 34.1283 8.44445C34.1283 7.12962 34.6347 5.86865 35.5362 4.93893C36.4376 4.00921 37.6603 3.48689 38.9351 3.48689ZM24.034 4.39578C24.8897 4.39578 25.7261 4.65746 26.4375 5.14773C27.1489 5.638 27.7034 6.33483 28.0308 7.15012C28.3583 7.96541 28.444 8.86252 28.277 9.72803C28.1101 10.5935 27.6981 11.3885 27.0931 12.0125C26.488 12.6365 25.7172 13.0615 24.878 13.2336C24.0388 13.4058 23.169 13.3174 22.3785 12.9797C21.588 12.642 20.9124 12.0702 20.437 11.3364C19.9616 10.6027 19.7079 9.74003 19.7079 8.85757C19.7079 7.67423 20.1637 6.53936 20.975 5.70261C21.7863 4.86586 22.8867 4.39578 24.034 4.39578ZM17.1443 20.0947C17.1461 19.1258 17.347 18.1684 17.7336 17.2854C18.1202 16.4024 18.6839 15.6139 19.3875 14.9719C20.7199 16.0645 22.3719 16.6593 24.0741 16.6593C25.7763 16.6593 27.4283 16.0645 28.7607 14.9719L29.4016 15.6329C28.6845 17.0941 28.3009 18.705 28.28 20.3426V26.7048H18.6664C18.2415 26.7048 17.8339 26.5307 17.5335 26.2207C17.233 25.9108 17.0642 25.4905 17.0642 25.0522L17.1443 20.0947Z" fill="#59BAA3"/>
</svg>
