<svg width="34" height="34" viewBox="0 0 34 34" fill="none" xmlns="http://www.w3.org/2000/svg">
<path d="M23.6555 2.7832H9.74051C5.898 2.7832 2.78302 5.89818 2.78302 9.7407V23.6557C2.78302 27.4982 5.898 30.6132 9.74051 30.6132H23.6555C27.498 30.6132 30.613 27.4982 30.613 23.6557V9.7407C30.613 5.89818 27.498 2.7832 23.6555 2.7832Z" stroke="#343434" stroke-width="1.98416" stroke-linecap="round" stroke-linejoin="round"/>
<path d="M22.2639 15.8213C22.4357 16.9794 22.2379 18.1621 21.6986 19.2013C21.1594 20.2405 20.3063 21.0832 19.2606 21.6095C18.2148 22.1359 17.0297 22.3191 15.8739 22.1331C14.718 21.9471 13.6502 21.4014 12.8224 20.5735C11.9946 19.7457 11.4488 18.6779 11.2628 17.522C11.0768 16.3662 11.26 15.1811 11.7864 14.1354C12.3127 13.0896 13.1554 12.2365 14.1946 11.6973C15.2338 11.1581 16.4165 10.9603 17.5746 11.132C18.7559 11.3072 19.8495 11.8576 20.6939 12.702C21.5383 13.5464 22.0888 14.6401 22.2639 15.8213Z" stroke="#343434" stroke-width="1.98416" stroke-linecap="round" stroke-linejoin="round"/>
<path d="M24.3512 9.04443H24.3661" stroke="#343434" stroke-width="1.98416" stroke-linecap="round" stroke-linejoin="round"/>
</svg>
