<svg width="109" height="68" viewBox="0 0 109 68" fill="none" xmlns="http://www.w3.org/2000/svg">
<path d="M109 41C73.6099 11.5465 33.818 11.7871 0 41L3.73814 41C38.5692 15.1208 71.8631 15.1208 105.297 41H109Z" fill="#56A995"/>
<path d="M73 41C58.93 -12.1379 49.8045 -15.1743 36 41H40.0152C50.9057 -12.3157 57.1733 -9.65656 68.6529 41L73 41Z" fill="#7D3870"/>
<path d="M10.7656 43.1328H12.6016V46.9609H10.7656C10.2448 45.5859 9.34115 44.8984 8.05469 44.8984C6.99219 44.8984 6.1875 45.2604 5.64062 45.9844C5.09896 46.7083 4.82812 47.5755 4.82812 48.5859C4.82812 49.6432 5.11458 50.5 5.6875 51.1562C6.26562 51.8073 7 52.1328 7.89062 52.1328C8.61979 52.1328 9.25781 51.8854 9.80469 51.3906C10.3516 50.8958 10.7214 50.2083 10.9141 49.3281L13.0547 50.3516C12.2422 52.8724 10.4531 54.1328 7.6875 54.1328C5.73438 54.1328 4.26042 53.6068 3.26562 52.5547C2.27604 51.5026 1.78125 50.1719 1.78125 48.5625C1.78125 47.4167 2.03906 46.4141 2.55469 45.5547C3.07031 44.6953 3.76302 44.0495 4.63281 43.6172C5.50781 43.1797 6.46615 42.9609 7.50781 42.9609C8.80469 42.9609 9.89062 43.2995 10.7656 43.9766V43.1328ZM21.2234 54V52.1641H22.5281V44.9688H21.2234V43.1328H30.8016V46.5781H28.7234V44.9688H25.3563V47.4766H28.075V49.3125H25.3563V52.1641H28.7234V50.5391H30.8016V54H21.2234ZM38.9391 54V52.1641H40.5875V44.9688H38.9391V43.1328H44.0875C45.1708 43.1328 46.0432 43.2005 46.7047 43.3359C47.3661 43.4661 47.999 43.7604 48.6031 44.2188C49.2073 44.6719 49.6917 45.2812 50.0563 46.0469C50.4208 46.8125 50.6031 47.6615 50.6031 48.5938C50.6031 49.349 50.4755 50.0703 50.2203 50.7578C49.9651 51.4401 49.6474 51.9922 49.2672 52.4141C48.8922 52.8307 48.4417 53.1641 47.9156 53.4141C47.3896 53.6589 46.9052 53.8177 46.4625 53.8906C46.025 53.9635 45.3453 54 44.4234 54H38.9391ZM43.4078 52.1641H44.0875C44.9104 52.1641 45.5615 52.0573 46.0406 51.8438C46.525 51.6302 46.913 51.2552 47.2047 50.7188C47.4964 50.1771 47.6422 49.4714 47.6422 48.6016C47.6422 47.7734 47.4938 47.0703 47.1969 46.4922C46.9052 45.9141 46.5068 45.5156 46.0016 45.2969C45.5016 45.0781 44.8635 44.9688 44.0875 44.9688H43.4078V52.1641ZM59.1234 54V52.1641H60.4281V44.9688H59.1234V43.1328H68.7016V46.5781H66.6234V44.9688H63.2562V47.4766H65.975V49.3125H63.2562V52.1641H66.6234V50.5391H68.7016V54H59.1234ZM86.2375 43.1328H88.0734V46.9609H86.2375C85.7167 45.5859 84.813 44.8984 83.5266 44.8984C82.4641 44.8984 81.6594 45.2604 81.1125 45.9844C80.5708 46.7083 80.3 47.5755 80.3 48.5859C80.3 49.6432 80.5865 50.5 81.1594 51.1562C81.7375 51.8073 82.4719 52.1328 83.3625 52.1328C84.0917 52.1328 84.7297 51.8854 85.2766 51.3906C85.8234 50.8958 86.1932 50.2083 86.3859 49.3281L88.5266 50.3516C87.7141 52.8724 85.925 54.1328 83.1594 54.1328C81.2063 54.1328 79.7323 53.6068 78.7375 52.5547C77.7479 51.5026 77.2531 50.1719 77.2531 48.5625C77.2531 47.4167 77.5109 46.4141 78.0266 45.5547C78.5422 44.6953 79.2349 44.0495 80.1047 43.6172C80.9797 43.1797 81.938 42.9609 82.9797 42.9609C84.2766 42.9609 85.3625 43.2995 86.2375 43.9766V43.1328ZM107.023 52.1641V54H101.68V52.1641H103.07L102.555 50.2969H99.7344L99.1562 52.1641H100.609V54H95.7969V52.1641H97.1406L99.2578 44.9688H97.8125V43.1328H104.906V44.9688H103.445L105.727 52.1641H107.023ZM102.109 48.7031L101.203 45.4297L100.227 48.7031H102.109ZM23.5678 57.3408C25.2084 57.3408 26.4981 57.8148 27.4369 58.7627C28.3803 59.7106 28.852 60.8659 28.852 62.2285C28.852 63.5957 28.3803 64.7533 27.4369 65.7012C26.4936 66.6445 25.2038 67.1162 23.5678 67.1162C21.8679 67.1162 20.5622 66.6309 19.6508 65.6602C18.7393 64.6849 18.2836 63.541 18.2836 62.2285C18.2836 60.8704 18.7507 59.7174 19.685 58.7695C20.6238 57.8171 21.918 57.3408 23.5678 57.3408ZM23.5678 59.0771C22.8386 59.0771 22.2188 59.3506 21.7084 59.8975C21.2025 60.4443 20.9496 61.2464 20.9496 62.3037C20.9496 63.238 21.2003 63.9854 21.7016 64.5459C22.2029 65.1064 22.8249 65.3867 23.5678 65.3867C24.2969 65.3867 24.9167 65.1133 25.4271 64.5664C25.9376 64.015 26.1928 63.222 26.1928 62.1875C26.1928 61.2624 25.949 60.5127 25.4613 59.9385C24.9737 59.3643 24.3425 59.0771 23.5678 59.0771ZM32.8791 67V63.7598H34.4924C34.5106 64.3522 34.6656 64.7897 34.9573 65.0723C35.2489 65.3503 35.5816 65.4893 35.9553 65.4893C36.247 65.4893 36.4931 65.389 36.6936 65.1885C36.8941 64.9834 36.9944 64.7441 36.9944 64.4707C36.9944 64.179 36.8964 63.9352 36.7004 63.7393C36.5045 63.5387 36.1467 63.3109 35.6272 63.0557C34.5289 62.5225 33.7815 62.0531 33.385 61.6475C32.9931 61.2419 32.7971 60.695 32.7971 60.0068C32.7971 59.1774 33.0569 58.5348 33.5764 58.0791C34.0959 57.6234 34.6861 57.3955 35.3469 57.3955C36.1034 57.3955 36.689 57.6895 37.1037 58.2773V57.4912H38.7102V60.3828H37.1037C37.0536 59.9362 36.8987 59.5921 36.6389 59.3506C36.3837 59.1045 36.0852 58.9814 35.7434 58.9814C35.4791 58.9814 35.2558 59.0521 35.0735 59.1934C34.8912 59.3346 34.8 59.5192 34.8 59.7471C34.8 59.943 34.8752 60.1299 35.0256 60.3076C35.176 60.4808 35.6158 60.7292 36.345 61.0527C37.0468 61.3672 37.5845 61.652 37.9582 61.9072C38.3365 62.1579 38.635 62.486 38.8537 62.8916C39.0725 63.2926 39.1819 63.7575 39.1819 64.2861C39.1819 65.2249 38.9084 65.9313 38.3616 66.4053C37.8147 66.8792 37.1676 67.1162 36.4202 67.1162C35.5862 67.1162 34.9436 66.8086 34.4924 66.1934V67H32.8791ZM52.1026 65.3936V67H47.4268V65.3936H48.6436L48.1925 63.7598H45.7247L45.2188 65.3936H46.4903V67H42.2794V65.3936H43.4552L45.3077 59.0977H44.043V57.4912H50.2501V59.0977H48.9718L50.9678 65.3936H52.1026ZM47.8028 62.3652L47.0098 59.501L46.1553 62.3652H47.8028ZM55.412 67V63.7598H57.0253C57.0435 64.3522 57.1985 64.7897 57.4902 65.0723C57.7818 65.3503 58.1145 65.4893 58.4882 65.4893C58.7799 65.4893 59.026 65.389 59.2265 65.1885C59.427 64.9834 59.5273 64.7441 59.5273 64.4707C59.5273 64.179 59.4293 63.9352 59.2333 63.7393C59.0374 63.5387 58.6796 63.3109 58.1601 63.0557C57.0618 62.5225 56.3144 62.0531 55.9179 61.6475C55.526 61.2419 55.33 60.695 55.33 60.0068C55.33 59.1774 55.5898 58.5348 56.1093 58.0791C56.6288 57.6234 57.219 57.3955 57.8798 57.3955C58.6363 57.3955 59.2219 57.6895 59.6366 58.2773V57.4912H61.2431V60.3828H59.6366C59.5865 59.9362 59.4316 59.5921 59.1718 59.3506C58.9166 59.1045 58.6181 58.9814 58.2763 58.9814C58.012 58.9814 57.7887 59.0521 57.6064 59.1934C57.4241 59.3346 57.3329 59.5192 57.3329 59.7471C57.3329 59.943 57.4081 60.1299 57.5585 60.3076C57.7089 60.4808 58.1487 60.7292 58.8778 61.0527C59.5797 61.3672 60.1174 61.652 60.4911 61.9072C60.8694 62.1579 61.1679 62.486 61.3866 62.8916C61.6054 63.2926 61.7148 63.7575 61.7148 64.2861C61.7148 65.2249 61.4413 65.9313 60.8945 66.4053C60.3476 66.8792 59.7004 67.1162 58.953 67.1162C58.1191 67.1162 57.4765 66.8086 57.0253 66.1934V67H55.412ZM73.3982 57.4912H75.0046V60.8408H73.3982C72.9425 59.6377 72.1518 59.0361 71.0261 59.0361C70.0964 59.0361 69.3923 59.3529 68.9138 59.9863C68.4399 60.6198 68.2029 61.3786 68.2029 62.2627C68.2029 63.1878 68.4535 63.9375 68.9548 64.5117C69.4607 65.0814 70.1033 65.3662 70.8826 65.3662C71.5206 65.3662 72.0789 65.1497 72.5574 64.7168C73.0359 64.2839 73.3595 63.6823 73.5281 62.9121L75.4011 63.8076C74.6902 66.0133 73.1248 67.1162 70.7048 67.1162C68.9959 67.1162 67.7061 66.6559 66.8357 65.7354C65.9698 64.8148 65.5369 63.6504 65.5369 62.2422C65.5369 61.2396 65.7625 60.3623 66.2136 59.6104C66.6648 58.8584 67.2709 58.2933 68.032 57.915C68.7976 57.5322 69.6362 57.3408 70.5476 57.3408C71.6824 57.3408 72.6326 57.637 73.3982 58.2295V57.4912ZM84.4185 57.3408C86.0592 57.3408 87.3489 57.8148 88.2877 58.7627C89.231 59.7106 89.7027 60.8659 89.7027 62.2285C89.7027 63.5957 89.231 64.7533 88.2877 65.7012C87.3443 66.6445 86.0546 67.1162 84.4185 67.1162C82.7187 67.1162 81.413 66.6309 80.5016 65.6602C79.5901 64.6849 79.1344 63.541 79.1344 62.2285C79.1344 60.8704 79.6015 59.7174 80.5357 58.7695C81.4745 57.8171 82.7688 57.3408 84.4185 57.3408ZM84.4185 59.0771C83.6894 59.0771 83.0696 59.3506 82.5592 59.8975C82.0533 60.4443 81.8004 61.2464 81.8004 62.3037C81.8004 63.238 82.051 63.9854 82.5523 64.5459C83.0536 65.1064 83.6757 65.3867 84.4185 65.3867C85.1477 65.3867 85.7675 65.1133 86.2779 64.5664C86.7883 64.015 87.0435 63.222 87.0435 62.1875C87.0435 61.2624 86.7997 60.5127 86.3121 59.9385C85.8245 59.3643 85.1933 59.0771 84.4185 59.0771Z" fill="#7D3870"/>
</svg>
