<svg width="33" height="33" viewBox="0 0 33 33" fill="none" xmlns="http://www.w3.org/2000/svg">
<path d="M30.25 23.2651V27.3901C30.2516 27.7731 30.1731 28.1521 30.0197 28.503C29.8663 28.8539 29.6413 29.1688 29.3591 29.4277C29.0769 29.6866 28.7438 29.8837 28.381 30.0064C28.0183 30.129 27.6339 30.1746 27.2525 30.1401C23.0214 29.6804 18.9571 28.2346 15.3862 25.9189C12.064 23.8078 9.24734 20.9911 7.13625 17.6689C4.81247 14.0818 3.36633 9.99775 2.915 5.74763C2.88064 5.3674 2.92583 4.98418 3.04769 4.62237C3.16955 4.26056 3.36541 3.92808 3.6228 3.64611C3.8802 3.36414 4.19348 3.13886 4.54271 2.9846C4.89194 2.83034 5.26947 2.75049 5.65125 2.75013H9.77625C10.4435 2.74357 11.0905 2.97987 11.5964 3.41499C12.1024 3.85012 12.4329 4.45437 12.5262 5.11513C12.7004 6.43522 13.0232 7.73138 13.4888 8.97888C13.6737 9.47103 13.7138 10.0059 13.6041 10.5201C13.4945 11.0343 13.2397 11.5063 12.87 11.8801L11.1237 13.6264C13.0811 17.0688 15.9314 19.919 19.3737 21.8764L21.12 20.1301C21.4938 19.7604 21.9658 19.5057 22.48 19.396C22.9942 19.2863 23.5291 19.3264 24.0212 19.5114C25.2687 19.9769 26.5649 20.2998 27.885 20.4739C28.5529 20.5681 29.1629 20.9045 29.599 21.4192C30.035 21.9338 30.2667 22.5908 30.25 23.2651Z" stroke="white" stroke-width="1.98" stroke-linecap="round" stroke-linejoin="round"/>
</svg>
