<svg width="86" height="77" viewBox="0 0 86 77" fill="none" xmlns="http://www.w3.org/2000/svg">
<path d="M42.9995 8.45812C48.1227 8.45812 52.9332 9.82064 57.1008 12.1934C56.979 11.4784 56.9088 10.7521 56.9088 10.0175C56.9088 9.46524 56.9542 8.92542 57.0203 8.39078C52.7836 6.30815 48.0257 5.13525 42.9995 5.13525C37.965 5.13525 33.202 6.3123 28.9601 8.4001C29.0251 8.93163 29.0695 9.46835 29.0695 10.0165C29.0695 10.7552 28.9983 11.4857 28.8755 12.2048C33.0482 9.82478 37.867 8.45812 42.9995 8.45812Z" fill="#56A995"/>
<path d="M71.6829 37.1948C71.6829 37.2145 71.6839 37.2342 71.6839 37.2549C71.6839 48.126 65.6514 57.6066 56.7725 62.5075C57.561 63.3125 58.2721 64.1839 58.8996 65.1102C68.5062 59.5607 74.9938 49.158 74.9938 37.2549C74.9938 37.2352 74.9928 37.2155 74.9928 37.1948H71.6829Z" fill="#56A995"/>
<path d="M29.2069 62.4961C20.3382 57.5921 14.315 48.1177 14.315 37.2549C14.315 37.2352 14.316 37.2155 14.316 37.1948H11.0062C11.0062 37.2145 11.0051 37.2342 11.0051 37.2549C11.0051 49.1476 17.4825 59.5441 27.0756 65.0957C27.7042 64.1705 28.4163 63.3001 29.2069 62.4961Z" fill="#56A995"/>
<path d="M85.9764 32.265C85.8639 25.8213 81.7253 20.3236 75.9178 18.0493C78.3649 16.2226 79.9594 13.307 79.9594 10.0172C79.9594 4.49364 75.4843 0.000976562 69.9823 0.000976562C64.4813 0.000976562 60.0052 4.49364 60.0052 10.0172C60.0052 13.308 61.6008 16.2237 64.0489 18.0504C58.1599 20.3558 53.9851 25.9726 53.9851 32.5334C53.9851 33.3923 54.6776 34.0876 55.5332 34.0876H84.4314C84.4386 34.0866 84.4448 34.0876 84.4521 34.0876C85.3077 34.0876 86.0002 33.3923 86.0002 32.5334C86.0002 32.4412 85.9919 32.3521 85.9764 32.265ZM63.1015 10.0172C63.1015 6.20843 66.1884 3.10937 69.9823 3.10937C73.7762 3.10937 76.8632 6.20843 76.8632 10.0172C76.8632 13.8261 73.7762 16.9251 69.9823 16.9251C66.1884 16.9241 63.1015 13.8261 63.1015 10.0172ZM57.1804 30.9782C57.9731 24.8163 63.4121 20.0325 69.9823 20.0325C76.5525 20.0325 81.9916 24.8173 82.7832 30.9782H57.1804Z" fill="#56A995"/>
<path d="M30.4659 34.0866C31.3215 34.0866 32.014 33.3914 32.014 32.5324C32.014 32.4412 32.0058 32.3511 31.9913 32.2641C31.8788 25.8204 27.7402 20.3227 21.9327 18.0483C24.3798 16.2217 25.9743 13.306 25.9743 10.0163C25.9743 4.49266 21.4992 0 15.9972 0C10.4962 0 6.02011 4.49266 6.02011 10.0163C6.02011 13.307 7.61571 16.2227 10.0638 18.0494C4.17476 20.3548 0 25.9716 0 32.5324C0 33.3914 0.692525 34.0866 1.54812 34.0866H30.4463C30.4525 34.0856 30.4587 34.0866 30.4659 34.0866ZM9.11635 10.0173C9.11635 6.20849 12.2033 3.10943 15.9972 3.10943C19.7911 3.10943 22.8781 6.20849 22.8781 10.0173C22.8781 13.8261 19.7911 16.9252 15.9972 16.9252C12.2033 16.9241 9.11635 13.8261 9.11635 10.0173ZM3.19428 30.9782C3.98692 24.8164 9.42597 20.0325 15.9962 20.0325C22.5664 20.0325 28.0065 24.8174 28.7981 30.9782H3.19428Z" fill="#56A995"/>
<path d="M48.9246 60.9619C51.3717 59.1352 52.9663 56.2196 52.9663 52.9298C52.9663 47.4062 48.4912 42.9136 42.9892 42.9136C37.4882 42.9136 33.0121 47.4062 33.0121 52.9298C33.0121 56.2206 34.6076 59.1363 37.0557 60.963C31.1667 63.2684 26.9919 68.8852 26.9919 75.446C26.9919 76.3049 27.6845 77.0002 28.5401 77.0002H57.4383C57.4455 76.9991 57.4517 77.0002 57.4589 77.0002C58.3145 77.0002 59.007 76.3049 59.007 75.446C59.007 75.3548 58.9988 75.2647 58.9843 75.1776C58.8718 68.7339 54.7321 63.2362 48.9246 60.9619ZM36.1083 52.9309C36.1083 49.1221 39.1952 46.023 42.9892 46.023C46.7831 46.023 49.87 49.1221 49.87 52.9309C49.87 56.7397 46.7831 59.8388 42.9892 59.8388C39.1952 59.8377 36.1083 56.7387 36.1083 52.9309ZM30.1873 73.8918C30.9799 67.7299 36.4189 62.9461 42.9892 62.9461C49.5594 62.9461 54.9984 67.7299 55.7911 73.8918H30.1873Z" fill="#56A995"/>
</svg>
